<?xml version="1.0" encoding="utf-8"?>
<!-- Generator: Adobe Illustrator 27.0.0, SVG Export Plug-In . SVG Version: 6.00 Build 0)  -->
<svg version="1.1" id="Layer_1" xmlns="http://www.w3.org/2000/svg" xmlns:xlink="http://www.w3.org/1999/xlink" x="0px" y="0px"
	 viewBox="0 0 62.5 61.5" style="enable-background:new 0 0 62.5 61.5;" xml:space="preserve">
<style type="text/css">
	.st0{clip-path:url(#SVGID_00000011029961790177540070000007433107853058880676_);}
	.st1{fill:#104A33;}
	.st2{fill:#DFDBAF;}
</style>
<g>
	<g>
		<defs>
			<rect id="SVGID_1_" x="16.1" y="2.5" width="243.9" height="63.8"/>
		</defs>
		<clipPath id="SVGID_00000109021246670712727940000012201327764720960441_">
			<use xlink:href="#SVGID_1_"  style="overflow:visible;"/>
		</clipPath>
	</g>
</g>
<g id="Untitled_Artwork_23.tiff">
	<path class="st2" d="M0.4,40.8L0.2,40C0,39,0,38.1,0,37.1c0.1-0.9,0.3-1.7,0.8-2.5c0.5-0.9,0.9-1.7,1.4-2.5
		c0.4-0.6,0.8-1.2,1.2-1.8c0.9-1.2,1.8-2.4,2.7-3.6c0.5-0.8,1-1.7,1.5-2.5c0.5-1,1.1-1.9,1.9-2.8c0.9-1.1,1.8-2.1,2.8-3.2
		c2-2.2,4-4.5,5.9-6.8c1.2-1.4,2.4-2.8,3.6-4.2c0.3-0.4,0.7-0.7,1-1c1.3-1.3,2.7-2.4,4.3-3.4c0.5-0.4,1.1-0.7,1.7-1.1
		c1.4-1,3-1.5,4.6-1.6C33.6,0.1,33.8,0,34,0c0.3,0,0.7,0,1,0.1c0.1,0,0.2,0.1,0.2,0.1c1.1,0.2,2,1.1,2.4,2.2
		c0.3,0.7,0.4,1.5,0.3,2.3c-0.2,0.9-0.5,1.8-0.8,2.7c-0.5,1.3-1,2.6-1.7,3.9c-0.6,1.3-1,2.6-1.3,4c0,0.1,0,0.3,0,0.4
		c0.3,0.8,1,1.4,1.8,1.6c0.3,0.1,0.6,0.2,0.9,0.3c1,0.3,2,0.7,3,1c0.3,0.1,0.6,0.3,0.9,0.5c0.3,0.1,0.7,0.2,1.1,0.3
		c0.3,0.1,0.6,0,0.8-0.2c0.8-0.5,1.6-1,2.4-1.5c0.9-0.6,1.8-1.2,2.7-1.9l2.8-2.2c0.6-0.4,1.1-0.9,1.7-1.3c0.8-0.6,1.7-1.2,2.6-1.8
		c0.9-0.6,1.9-0.9,3-1c0.7,0,1.4,0.2,2,0.5c0.9,0.4,1.5,1.2,1.8,2.1c0.2,0.5,0.4,1,0.6,1.6c0.3,1,0.4,1.9,0.3,2.9
		c-0.1,1.4-0.5,2.7-1,4c-0.6,1.5-1.2,3.1-1.8,4.7c-0.4,1-0.7,1.9-1,2.9c-0.2,0.4-0.3,0.8-0.5,1.2c-0.4,0.9-0.8,1.7-1.2,2.6
		s-0.6,1.5-0.9,2.3s-0.7,1.8-0.9,2.7s-0.4,1.7-0.6,2.6c-0.5,2.2-0.8,4.4-1.1,6.6c-0.2,1-0.3,2.1-0.5,3.1c-0.1,0.5-0.3,1.1-0.6,1.6
		c-0.3,0.9-0.8,1.8-1.3,2.6c-1,1.3-2.1,2.5-3.3,3.6c-1.8,1.5-3.8,2.8-6,3.6c-0.4,0.1-0.7,0.2-1.1,0.3s-0.7,0.2-1.1,0.3
		c-0.8,0.2-1.6,0.2-2.3,0.1c-1.1-0.2-2.3-0.3-3.4-0.6c-1.5-0.3-2.9-0.9-4.2-1.6c-0.8-0.4-1.7-0.9-2.5-1.4c-0.2-0.1-0.4-0.3-0.6-0.4
		c-0.8-0.5-1.5-1-2.3-1.5s-1.4-0.9-2-1.4c-0.5-0.4-1.1-0.8-1.7-1.2c-1-0.5-2.2-0.8-3.3-0.9c-1,0-2-0.1-3-0.4
		c-0.6-0.2-1.2-0.3-1.8-0.4L12,51.8c-0.7-0.3-1.4-0.5-2.1-0.9c-1.2-0.6-2.3-1.2-3.5-1.8S4,47.6,3,46.7c-0.8-0.7-1.4-1.6-1.8-2.6
		c-0.1-0.4-0.2-0.8-0.4-1.2C0.7,42.2,0.5,41.5,0.4,40.8L0.4,40.8z M42.5,47.7c0.5-0.1,1-0.2,1.4-0.3c1.1-0.4,2-1.1,2.8-2
		c1.1-1.3,1.8-2.9,2-4.6c0.1-0.8,0.1-1.5-0.1-2.3c-0.1-0.3-0.1-0.5-0.2-0.8c-0.1-0.7-0.3-1.5-0.7-2.1c-0.8-1.4-1.9-2.7-3.2-3.8
		c-0.6-0.5-1.3-0.9-2-1.2c-0.6-0.3-1.3-0.5-2-0.4c-0.7,0-1.5,0.1-2.2,0.1c-0.9,0-1.8,0.2-2.6,0.6c-1.4,0.6-2.7,1.5-3.8,2.6
		c-1,1-1.7,2.3-1.9,3.7c0,0.8,0,1.7,0,2.5c0,0.1,0,0.2,0,0.4c0.1,0.5,0.2,1,0.3,1.6c0.1,1,0.6,2,1.3,2.8c0.7,0.7,1.4,1.3,2.2,1.9
		c1.4,0.9,3,1.5,4.7,1.7C39.9,48.1,41.2,48.1,42.5,47.7z M27.2,29.6c-0.1-0.4-0.2-0.9-0.4-1.3c-0.4-1-0.9-1.9-1.5-2.8
		c-0.7-1.2-1.8-2.1-3-2.7c-0.5-0.2-1-0.4-1.5-0.6c-1-0.5-2.2-0.6-3.3-0.4c-0.5,0.1-1,0.2-1.5,0.4c-1.1,0.3-2.2,0.8-3.1,1.5
		c-0.8,0.5-1.4,1.3-1.8,2.1c0,0.1-0.1,0.2-0.2,0.2c-0.8,1-1.2,2.1-1.2,3.4c0,0.4,0,0.8,0,1.2c0,0.8,0.1,1.7,0.3,2.5
		c0.6,1.9,1.7,3.5,3.2,4.7c0.9,0.7,2,1.3,3.1,1.7s2.3,0.6,3.5,0.6c0.2,0,0.4,0,0.6-0.1c1.2-0.2,2.4-0.7,3.3-1.6
		c0.5-0.5,1-0.9,1.4-1.3c0.7-0.8,1.3-1.7,1.7-2.7c0.3-0.5,0.4-1.1,0.4-1.7C27.4,31.8,27.4,30.7,27.2,29.6z M26.3,47.9
		c-0.1-0.4-0.2-0.8-0.5-1.1c-0.7-0.9-1.7-1.5-2.8-1.8c-0.6-0.2-1.3,0-1.7,0.5c-0.5,0.5-0.7,1.2-0.4,1.9c0.5,1.1,1.4,2,2.5,2.5
		c0.6,0.2,1.2,0.2,1.7,0.1c0.4-0.1,0.8-0.3,1-0.7C26.3,48.8,26.4,48.4,26.3,47.9z"/>
	<path class="st2" d="M41.5,45.6c-1.2,0.3-2.5,0-3.5-0.8c-0.3-0.3-0.6-0.7-0.8-1.1c-0.4-0.7-0.8-1.5-1-2.3c-0.1-0.2-0.1-0.5-0.1-0.7
		c0.1-1.2,0.6-2.4,1.5-3.3c0.9-1,2.2-1.6,3.6-1.6c0.4,0,0.8,0,1.2,0c0.3,0,0.5,0.1,0.7,0.2c0.4,0.2,0.8,0.4,1.2,0.7
		c0.7,0.4,1.2,1.1,1.4,1.9c0.1,0.5,0.3,1.1,0.4,1.6c0,0.1,0,0.3,0,0.4c-0.2,0.7-0.4,1.4-0.7,2.1c-0.4,0.9-1.1,1.6-1.9,2.1
		C42.9,45.2,42.2,45.5,41.5,45.6z"/>
	<path class="st2" d="M15.4,33.5c0-0.5,0-1,0-1.4c0.2-1.6,1-3,2.4-3.8c0.1-0.1,0.2-0.1,0.3-0.2c0.9-0.8,2.1-1.1,3.3-0.9
		c0.6,0.1,1.2,0.3,1.8,0.7c0.8,0.4,1.4,1.1,1.7,2c0.2,0.3,0.3,0.7,0.5,1c0.2,0.5,0.3,1.1,0.1,1.6c-0.4,1.8-1.5,3.4-3.1,4.3
		c-1.3,0.9-3.1,1-4.5,0.2C16.6,36.2,15.6,34.9,15.4,33.5z"/>
</g>
</svg>
