<?xml version="1.0" encoding="utf-8"?>
<!-- Generator: Adobe Illustrator 27.0.0, SVG Export Plug-In . SVG Version: 6.00 Build 0)  -->
<svg version="1.1" id="Layer_1" xmlns="http://www.w3.org/2000/svg" xmlns:xlink="http://www.w3.org/1999/xlink" x="0px" y="0px"
	 viewBox="0 0 191.2 138.9" style="enable-background:new 0 0 191.2 138.9;" xml:space="preserve">
<style type="text/css">
	.st0{fill:#FFB607;}
	.st1{fill:#FFFFFF;}
</style>
<g>
	<path class="st0" d="M104.2,54.7c-0.1,1-0.3,2.3-0.3,3.8c-1.5,5.4-5,13.7-11.2,16.6c-3.1,1.4-6.5,1.5-8.6,0.2c-1.4-0.9-2-2.3-2-4.1
		c0-3.5,2.3-7.9,6.4-12c0.1-0.1,0.3-0.3,0.4-0.5C93,54.8,97.5,52.7,104.2,54.7z"/>
	<path class="st0" d="M157.3,70.9c-0.4,1-0.9,1.7-1.4,2.3c-1.7,2-4.4,3.1-6.9,2.9c-1.1-0.1-2-0.8-2.3-1.9c-0.3-1.2,0.2-2.5,1.6-3.5
		c1-0.7,2-1,3.2-1c1.3,0,2.9,0.4,4.9,0.9C156.6,70.7,156.9,70.8,157.3,70.9z"/>
	<path class="st0" d="M115.3,97.1c-5.9-0.1-7.9-1.4-8.5-2c-0.5-0.5-0.5-1-0.5-1.5v-0.1c0.1-0.5,0.9-1.4,2.9-2.3
		c1-0.4,2.2-0.9,3.8-1.3c-0.1,0.7-0.1,1.5,0,2.4C113.1,94.3,113.7,96,115.3,97.1z"/>
	<path class="st0" d="M132.5,91.4c0.3,0.3,0.5,0.7,0.5,1.1c0,0.2-0.1,0.7-0.5,1c-0.9,0.8-3.1,2.1-7.6,2.9c1-1.1,1.6-2.6,1.9-4.1
		c0.2-1.4,0.2-2.5,0-3.4C130.1,89.5,131.8,90.7,132.5,91.4z"/>
	<path class="st0" d="M62,93.7c-0.1-1.4-0.1-2.4,0.2-3.3c-4.5,0.7-6.3,1.9-7,2.8c-0.6,0.7-0.8,1.9-0.3,2.8c0.3,0.7,2,1.8,8.8,2.4
		C62.5,97.3,62.2,95.6,62,93.7z M82.7,94.9c0-0.1,0-0.2-0.1-0.4C82.2,92.4,80,91,76,90.4c0.2,0.8,0.3,1.9,0.2,3.4
		c-0.2,2-1,3.8-2.6,4.9c6-0.4,8-1.9,8.7-2.6C82.8,95.4,82.7,94.9,82.7,94.9z M82.7,94.9c0-0.1,0-0.2-0.1-0.4
		C82.2,92.4,80,91,76,90.4c0.2,0.8,0.3,1.9,0.2,3.4c-0.2,2-1,3.8-2.6,4.9c6-0.4,8-1.9,8.7-2.6C82.8,95.4,82.7,94.9,82.7,94.9z
		 M62.2,90.5c-4.5,0.7-6.3,1.9-7,2.8c-0.6,0.7-0.8,1.9-0.3,2.8c0.3,0.7,2,1.8,8.8,2.4c-1.2-1.1-1.5-2.8-1.7-4.6
		C61.9,92.4,61.9,91.3,62.2,90.5z M164.6,71.8c-1.1,0.1-2.2,0-3.2-0.1c-0.5,1.5-1.3,2.9-2.4,4.2c-2.6,3-6.5,4.7-10.4,4.4
		c-2.9-0.2-5.2-2.2-6-4.9c-0.8-2.9,0.4-5.9,3.2-7.9c3.8-2.8,7.7-1.7,11.5-0.8c0.2,0.1,0.5,0.1,0.7,0.2c0-0.9-0.1-1.9-0.4-3
		c-1.8-7.6-6.8-10.2-9-11c-0.5,0.7-1.1,1.7-1.7,2.6c-5,8.1-15.4,24.8-27.4,24.8c-0.2,0-0.4,0-0.7,0c-4.7-0.2-8.4-2.1-11-5.4
		c-1.6-2-2.6-4.4-3.1-6.9c-2.4,4.6-5.7,9-10.3,11.1c-2.2,1-4.5,1.5-6.6,1.5c-2.2,0-4.3-0.5-5.9-1.6c-2.4-1.6-3.8-4.1-3.9-7.2
		c-3.1,3.4-6.6,6.5-11.1,8.2c-3.7,1.4-6.8,2.1-9.5,2.1c-2.4,0-4.4-0.6-6.1-1.8c-5.1-3.6-4.7-11.8-4.4-18.4c0.1-2.7,0.3-7.1-0.3-8.1
		c-5.2-2.4-12.4,4.4-18.2,11.9c-0.2,0.7-0.3,1.5-0.4,2.2c-1.1,6.8-0.7,14.1,1.1,23.9c1.4,7.1,4.2,13.1,8.7,18.5
		c4.1,4.9,9.5,9.1,16.5,12.8c6.1,3.2,12.6,6.4,19.8,8c7.6,1.6,14.8,2.3,21.4,2.2c7.7-0.2,15.2-2.7,21.9-5
		c7.2-2.4,13.9-5.8,19.9-10.1c5.9-4.2,11.1-9.4,15.7-15.7c5-6.8,8.2-13.2,9.9-19.7c0.9-3.5,1.5-7.1,1.7-10.8
		C164.7,71.8,164.7,71.8,164.6,71.8z M70.8,102.8c-0.8,0-1.7,0-2.6-0.1c-12.2-0.5-15.5-2.2-16.9-4.9c-1.2-2.4-0.9-5.4,0.8-7.4
		c2.4-2.7,7-4.2,14.1-4.6c1.3-0.1,2.6-0.1,3.7-0.1c13.6,0,16.2,4.4,16.8,7.9c0,0.1,0,0.1,0,0.2c0.1,0.6,0.4,2.6-1.3,4.6
		C83.1,101.4,78.2,102.8,70.8,102.8z M135.3,96.6c-3,2.6-8.3,4.2-15.8,4.5c-1.1,0.1-2.1,0.1-3.1,0.1c-6.2,0-10.3-1.1-12.5-3.2
		c-1.8-1.8-1.8-3.8-1.8-4.5v-0.1c0-0.9,0.3-3,3.5-5.1c2.9-1.9,7.4-3.1,13.3-3.7c9.9-1,14.6,1.9,16.4,3.7c1.1,1.1,1.8,2.6,1.8,4.2
		C137.1,94.1,136.4,95.6,135.3,96.6z M82.7,94.5C82.2,92.4,80,91,76,90.4c0.2,0.8,0.3,1.9,0.2,3.4c-0.2,2-1,3.8-2.6,4.9
		c6-0.4,8-1.9,8.7-2.6c0.6-0.6,0.5-1.1,0.5-1.1C82.7,94.8,82.7,94.7,82.7,94.5z M62.2,90.5c-4.5,0.7-6.3,1.9-7,2.8
		c-0.6,0.7-0.8,1.9-0.3,2.8c0.3,0.7,2,1.8,8.8,2.4c-1.2-1.1-1.5-2.8-1.7-4.6C61.9,92.4,61.9,91.3,62.2,90.5z M62,93.7
		c-0.1-1.4-0.1-2.4,0.2-3.3c-4.5,0.7-6.3,1.9-7,2.8c-0.6,0.7-0.8,1.9-0.3,2.8c0.3,0.7,2,1.8,8.8,2.4C62.5,97.3,62.2,95.6,62,93.7z
		 M82.7,94.9c0-0.1,0-0.2-0.1-0.4C82.2,92.4,80,91,76,90.4c0.2,0.8,0.3,1.9,0.2,3.4c-0.2,2-1,3.8-2.6,4.9c6-0.4,8-1.9,8.7-2.6
		C82.8,95.4,82.7,94.9,82.7,94.9z M82.7,94.9c0-0.1,0-0.2-0.1-0.4C82.2,92.4,80,91,76,90.4c0.2,0.8,0.3,1.9,0.2,3.4
		c-0.2,2-1,3.8-2.6,4.9c6-0.4,8-1.9,8.7-2.6C82.8,95.4,82.7,94.9,82.7,94.9z M62,93.7c-0.1-1.4-0.1-2.4,0.2-3.3
		c-4.5,0.7-6.3,1.9-7,2.8c-0.6,0.7-0.8,1.9-0.3,2.8c0.3,0.7,2,1.8,8.8,2.4C62.5,97.3,62.2,95.6,62,93.7z"/>
	<path class="st0" d="M164.8,67.6c-0.2,0-0.3,0-0.5,0c-0.8,0.1-1.5,0-2.3-0.1c0.1-1.5-0.1-3.2-0.5-4.8
		c-2.8-11.6-11.7-14.1-13.1-14.4c-0.3-0.1-0.7-0.1-1,0c-1.2,0.2-1.7,1-4.1,4.8c-4.3,7-14.4,23.3-24.3,22.8c-3.5-0.2-6.1-1.4-8-3.8
		c-2.8-3.6-3.2-9-3.1-13c0.3-1.2,0.5-2.4,0.7-3.3c0.2-1.6,0.2-2.8-0.4-3.7c0-0.1-0.1-0.1-0.1-0.2c-0.1-0.1-0.1-0.1-0.2-0.2l0,0
		c-0.1-0.1-0.2-0.2-0.3-0.2c-0.1-0.1-0.2-0.1-0.3-0.1c0,0,0,0,0,0c-14.2-5.2-21.1,3.6-27.9,12c-4,5.1-8.2,10.3-14,12.5
		c-5.6,2.1-9.5,2.4-11.6,0.9c-3.2-2.3-2.9-9.3-2.6-14.9c0.2-5.3,0.4-9.5-1.9-11.5c-0.1-0.1-0.2-0.2-0.4-0.3
		c-5.6-3-11.8,0.3-17.3,5.6c1.5-3.7,3.2-7.2,4.9-10.4c3.9-7.6,8.4-14,13.8-19.4c5.7-5.7,12.2-10.2,19.5-13.6
		c5.9-2.7,13.9-5.9,22.9-6.4c8.4-0.4,16.7,0.4,24.8,2.6c9.1,2.4,16.7,5.9,22.7,10.2c7.1,5.1,12.1,12.4,16,18.8
		c4.4,7.2,7.1,14.8,8.2,22.9C164.6,62.9,164.8,65.3,164.8,67.6z"/>
	<path class="st1" d="M63.7,98.4c-6.8-0.6-8.5-1.7-8.8-2.4c-0.5-0.9-0.4-2,0.3-2.8c0.7-0.8,2.5-2.1,7-2.8c-0.2,0.8-0.3,1.9-0.2,3.3
		C62.2,95.6,62.5,97.3,63.7,98.4z"/>
	<path class="st1" d="M82.2,96c-0.7,0.8-2.7,2.3-8.7,2.6c1.6-1.1,2.4-2.9,2.6-4.9c0.1-1.4,0.1-2.5-0.2-3.4c4,0.6,6.3,2,6.7,4.1
		c0,0.1,0.1,0.3,0.1,0.4C82.7,94.9,82.8,95.4,82.2,96z"/>
	<path class="st1" d="M115.3,97.1c-5.9-0.1-7.9-1.4-8.5-2c-0.5-0.5-0.5-1-0.5-1.5v-0.1c0.1-0.5,0.9-1.4,2.9-2.3
		c1-0.4,2.2-0.9,3.8-1.3c-0.1,0.7-0.1,1.5,0,2.4C113.1,94.3,113.7,96,115.3,97.1z"/>
	<path class="st1" d="M133,92.5c0,0.2-0.1,0.7-0.5,1c-0.9,0.8-3.1,2.1-7.6,2.9c1-1.1,1.6-2.6,1.9-4.1c0.2-1.4,0.2-2.5,0-3.4
		c3.4,0.6,5.1,1.8,5.8,2.5C132.8,91.7,133,92.1,133,92.5z"/>
	<path d="M189.9,49.7c-1.1-0.4-2.3,0.2-2.6,1.2c0,0.1-2.2,6-5.6,9.7c-2.6,2.8-7.5,5.2-12.6,6.3c-0.1-2.3-0.3-4.6-0.6-7
		c-1.2-8.7-4.1-16.9-8.8-24.5c-4.1-6.7-9.4-14.4-17.1-20c-6.4-4.6-14.5-8.3-24-10.9c-7.1-1.9-14.4-2.9-21.7-2.9
		c-1.4,0-2.9,0-4.4,0.1C82.7,2.3,74.3,5.7,68,8.6c-7.7,3.6-14.6,8.4-20.6,14.4c-5.7,5.7-10.6,12.5-14.6,20.5c-3,6-6.3,12.8-8.1,20.2
		c-1.1,1.4-2.1,2.9-3.1,4.3c0.7-5.7,1-12.1-0.6-15.2c0,0,0-0.1-0.1-0.1c-1.9-3.2-4.4-4.1-6.2-4.3c-6.4-0.8-13.4,6.3-14.2,7.1
		c-0.8,0.8-0.8,2.1,0.1,2.9s2.1,0.8,2.9-0.1c1.7-1.8,7-6.3,10.7-5.8c0.8,0.1,2,0.4,3.1,2.3c1.8,3.7-0.1,16.2-1.6,23.3
		c-0.2,1,0.3,2,1.3,2.4c1,0.4,2.1-0.1,2.5-1c0.9-1.7,2.2-4,3.9-6.5c-0.4,7.2,0.7,14.1,1.7,19.6c1.5,7.8,4.6,14.4,9.6,20.4
		c4.5,5.4,10.3,9.9,17.7,13.8c6.3,3.3,13.1,6.7,20.8,8.3c7.2,1.5,14.1,2.3,20.6,2.3c0.6,0,1.2,0,1.8,0c8.3-0.2,16.2-2.8,23.2-5.2
		c7.6-2.5,14.7-6.1,21-10.6c6.2-4.4,11.8-10,16.7-16.6c5.2-7.2,8.7-14.1,10.6-21.1c1.1-4,1.7-8.1,1.8-12.4
		c6.2-1.2,12.4-4.2,15.7-7.7c4-4.3,6.4-10.8,6.5-11.1C191.5,51.3,190.9,50.1,189.9,49.7z M163.1,82.5c-1.7,6.5-5,13-9.9,19.7
		c-4.6,6.4-9.8,11.5-15.7,15.7c-6,4.3-12.7,7.7-19.9,10.1c-6.7,2.2-14.3,4.8-21.9,5c-6.6,0.1-13.9-0.6-21.4-2.2
		c-7.2-1.5-13.7-4.8-19.8-8c-6.9-3.6-12.3-7.8-16.5-12.8c-4.5-5.4-7.3-11.4-8.7-18.5c-1.9-9.8-2.2-17.1-1.1-23.9
		c0.1-0.7,0.2-1.5,0.4-2.2c5.8-7.5,12.9-14.3,18.2-11.9c0.7,1,0.5,5.4,0.3,8.1c-0.3,6.6-0.7,14.7,4.4,18.4c1.6,1.2,3.6,1.8,6.1,1.8
		c2.6,0,5.8-0.7,9.5-2.1c4.5-1.7,7.9-4.7,11.1-8.2c0.1,3.1,1.5,5.7,3.9,7.2c1.7,1.1,3.7,1.6,5.9,1.6c2.1,0,4.4-0.5,6.6-1.5
		c4.5-2.1,7.9-6.5,10.3-11.1c0.6,2.4,1.6,4.9,3.1,6.9c2.6,3.3,6.3,5.1,11,5.4c0.2,0,0.4,0,0.7,0c12,0,22.4-16.7,27.4-24.8
		c0.6-0.9,1.2-2,1.7-2.6c2.2,0.8,7.2,3.4,9,11c0.3,1.1,0.4,2.1,0.4,3c-0.2-0.1-0.5-0.1-0.7-0.2c-3.8-1-7.7-2-11.5,0.8
		c-2.8,2-4,5-3.2,7.9c0.8,2.7,3.1,4.7,6,4.9c3.9,0.3,7.8-1.3,10.4-4.4c1.1-1.2,1.9-2.6,2.4-4.2c1,0.1,2.1,0.2,3.2,0.1
		c0.1,0,0.1,0,0.2,0C164.6,75.4,164,79,163.1,82.5z M82.1,71.2c0-3.5,2.3-7.9,6.4-12c0.1-0.1,0.3-0.3,0.4-0.5c4.1-3.9,8.6-6,15.4-4
		c-0.1,1-0.3,2.3-0.3,3.8c-1.5,5.4-5,13.7-11.2,16.6c-3.1,1.4-6.5,1.5-8.6,0.2C82.7,74.5,82.1,73.1,82.1,71.2z M157.3,70.9
		c-0.4,1-0.9,1.7-1.4,2.3c-1.7,2-4.4,3.1-6.9,2.9c-1.1-0.1-2-0.8-2.3-1.9c-0.3-1.2,0.2-2.5,1.6-3.5c1-0.7,2-1,3.2-1
		c1.3,0,2.9,0.4,4.9,0.9C156.6,70.7,156.9,70.8,157.3,70.9z M164.4,67.7c-0.8,0.1-1.5,0-2.3-0.1c0.1-1.5-0.1-3.2-0.5-4.8
		c-2.8-11.6-11.7-14.1-13.1-14.4c-0.3-0.1-0.7-0.1-1,0c-1.2,0.2-1.7,1-4.1,4.8c-4.3,7-14.4,23.3-24.3,22.8c-3.5-0.2-6.1-1.4-8-3.8
		c-2.8-3.6-3.2-9-3.1-13c0.3-1.2,0.5-2.4,0.7-3.3c0.2-1.6,0.2-2.8-0.4-3.7c0-0.1-0.1-0.1-0.1-0.2c-0.1-0.1-0.1-0.1-0.2-0.2l0,0
		c-0.1-0.1-0.2-0.2-0.3-0.2c-0.1-0.1-0.2-0.1-0.3-0.1c0,0,0,0,0,0c-14.2-5.2-21.1,3.6-27.9,12c-4,5.1-8.2,10.3-14,12.5
		c-5.6,2.1-9.5,2.4-11.6,0.9c-3.2-2.3-2.9-9.3-2.6-14.9c0.2-5.3,0.4-9.5-1.9-11.5c-0.1-0.1-0.2-0.2-0.4-0.3
		c-5.6-3-11.8,0.3-17.3,5.6c1.5-3.7,3.2-7.2,4.9-10.4c3.9-7.6,8.4-14,13.8-19.4c5.7-5.7,12.2-10.2,19.5-13.6
		c5.9-2.7,13.9-5.9,22.9-6.4c8.4-0.4,16.7,0.4,24.8,2.6c9.1,2.4,16.7,5.9,22.7,10.2c7.1,5.1,12.1,12.4,16,18.8
		c4.4,7.2,7.1,14.8,8.2,22.9c0.3,2.4,0.5,4.8,0.6,7.1C164.7,67.6,164.5,67.6,164.4,67.7z"/>
	<path d="M92.6,122.9c-2.6,0-5.3-0.3-7.9-0.9c-1.2-0.3-2-0.4-2.7-0.5c-2.3-0.4-2.9-0.6-5.8-2.2c-1-0.6-1.4-1.8-0.8-2.8
		c0.6-1,1.8-1.4,2.8-0.8c2.4,1.4,2.6,1.4,4.6,1.8c0.7,0.1,1.6,0.3,2.8,0.6c2.6,0.6,5.2,0.8,7.8,0.8c3.2-0.1,6.1-0.4,8.5-1
		c4.1-1,4.1-1,6.5-2.1c0.4-0.2,0.9-0.5,1.5-0.8c1-0.5,2.3-0.1,2.8,1c0.5,1,0.1,2.3-1,2.8c-0.6,0.3-1.1,0.5-1.5,0.7
		c-2.6,1.3-2.9,1.4-7.3,2.5c-2.7,0.6-5.8,1-9.3,1.1C93.1,122.9,92.9,122.9,92.6,122.9z"/>
	<path d="M97,110.3c-1.8,0-2.7-0.1-3.5-0.2c-0.8-0.1-1.5-0.2-3.1-0.2c-1.1,0-2.1-0.9-2.1-2.1c0-1.1,0.9-2.1,2.1-2.1
		c1.8,0,2.7,0.1,3.5,0.2c0.8,0.1,1.5,0.2,3.1,0.2c1.1,0,2.1,0.9,2.1,2.1S98.1,110.3,97,110.3z"/>
	<path d="M86.8,93.9c0-0.1,0-0.1,0-0.2c-0.7-3.5-3.2-7.9-16.8-7.9c-1.1,0-2.4,0-3.7,0.1c-7.1,0.4-11.7,1.9-14.1,4.6
		c-1.7,2-2.1,5-0.8,7.4c1.4,2.6,4.7,4.4,16.9,4.9c0.9,0,1.8,0.1,2.6,0.1c7.4,0,12.4-1.4,14.7-4.3C87.2,96.5,86.9,94.5,86.8,93.9z
		 M54.9,96c-0.5-0.9-0.4-2,0.3-2.8c0.7-0.8,2.5-2.1,7-2.8c-0.2,0.8-0.3,1.9-0.2,3.3c0.2,1.9,0.5,3.5,1.7,4.6
		C56.9,97.8,55.3,96.7,54.9,96z M82.2,96c-0.7,0.8-2.7,2.3-8.7,2.6c1.6-1.1,2.4-2.9,2.6-4.9c0.1-1.4,0.1-2.5-0.2-3.4
		c4,0.6,6.3,2,6.7,4.1c0,0.1,0.1,0.3,0.1,0.4C82.7,94.9,82.8,95.4,82.2,96z"/>
	<path d="M135.4,88.4c-1.9-1.8-6.5-4.7-16.4-3.7c-6,0.6-10.4,1.8-13.3,3.7c-3.2,2.1-3.5,4.2-3.5,5.1v0.1c0,0.8,0,2.7,1.8,4.5
		c2.2,2.1,6.3,3.2,12.5,3.2c1,0,2,0,3.1-0.1c7.5-0.4,12.8-1.9,15.8-4.5c1.2-1,1.8-2.5,1.9-4C137.2,91,136.5,89.5,135.4,88.4z
		 M106.8,95.1c-0.5-0.5-0.5-1-0.5-1.5v-0.1c0.1-0.5,0.9-1.4,2.9-2.3c1-0.4,2.2-0.9,3.8-1.3c-0.1,0.7-0.1,1.5,0,2.4
		c0.2,2,0.8,3.7,2.3,4.8C109.4,96.9,107.4,95.7,106.8,95.1z M132.5,93.5c-0.9,0.8-3.1,2.1-7.6,2.9c1-1.1,1.6-2.6,1.9-4.1
		c0.2-1.4,0.2-2.5,0-3.4c3.4,0.6,5.1,1.8,5.8,2.5c0.3,0.3,0.5,0.7,0.5,1.1C133,92.7,132.9,93.2,132.5,93.5z"/>
</g>
</svg>
