<?xml version="1.0" encoding="utf-8"?>
<!-- Generator: Adobe Illustrator 25.0.1, SVG Export Plug-In . SVG Version: 6.00 Build 0)  -->
<svg version="1.1" id="Layer_1" xmlns="http://www.w3.org/2000/svg" xmlns:xlink="http://www.w3.org/1999/xlink" x="0px" y="0px"
	 viewBox="0 0 281 105.8" style="enable-background:new 0 0 281 105.8;" xml:space="preserve">
<style type="text/css">
	.st0{clip-path:url(#SVGID_2_);}
	.st1{fill:#104A33;}
</style>
<g>
	<defs>
		<rect id="SVGID_1_" x="20.1" y="7.6" width="243.9" height="63.8"/>
	</defs>
	<clipPath id="SVGID_2_">
		<use xlink:href="#SVGID_1_"  style="overflow:visible;"/>
	</clipPath>
	<g class="st0">
		<path class="st1" d="M264,37.5c0-0.4-0.3-0.7-0.6-0.7c0,0,0,0,0,0l-3,0c-0.4,0-0.6-0.3-0.6-0.7c0,0,0,0,0,0v0l0.5-9
			c0-0.4-0.3-0.7-0.6-0.7c0,0,0,0,0,0l-9.7-0.1c-0.4,0-0.7,0.3-0.7,0.6c0,0,0,0,0,0l-0.2,9c0,0.4-0.3,0.7-0.6,0.7c0,0,0,0,0,0h-3.6
			c-0.3,0-0.6,0.3-0.6,0.6l0,0l0.4,7.9c0.1,0.4,0.4,0.6,0.7,0.7h2.9c0.4,0,0.6,0.3,0.7,0.7l0,0l-0.4,17l0,0c0,0.4,0.3,0.6,0.6,0.7
			l8.4,0.5h0c0.4,0,0.6-0.3,0.7-0.6l1-17.5c0-0.4,0.3-0.7,0.7-0.7c0,0,0,0,0,0h3.5c0.4,0,0.6-0.3,0.6-0.6c0,0,0,0,0,0L264,37.5z
			 M231.1,50.8c-0.4,2.5-2.1,3.8-3.6,3.8c-2.2-0.1-3.9-1.9-3.9-4.1c0,0,0-0.1,0-0.1c0-2.7,1.6-4.6,3.9-4.6c1.7,0,3.1,1.2,3.5,2.8
			L231.1,50.8z M241.7,36.9c0-0.4-0.3-0.8-0.7-0.8c0,0,0,0,0,0l-9,0.1c-0.4,0-0.8,0.4-0.8,0.8l0.1,1.2c-1.8-1.1-3.8-1.7-5.9-1.7
			c-6.4,0-12.1,5.3-12.1,13.3c0,8.5,4.8,13.8,12,13.8c2.3,0.1,4.4-0.8,6.1-2.4v2.6c0,0.4,0.4,0.7,0.8,0.7l0,0l7.9-0.4
			c0.4-0.1,0.8-0.4,0.8-0.9L241.7,36.9z M212.5,60.7c0-0.2-0.1-0.4-0.3-0.6l-10.4-8.6c-0.2-0.2-0.3-0.4-0.3-0.6
			c0-0.2,0.1-0.5,0.3-0.6l10-9.1c0.1-0.1,0.2-0.3,0.2-0.4c0-0.2-0.2-0.4-0.5-0.5l-8-3.1h-0.2c-0.5,0-1,0.2-1.4,0.6l-6.5,6.2
			c-0.1,0.1-0.2,0.2-0.4,0.2c-0.1,0-0.2-0.1-0.2-0.4l0,0l0.7-17.8l0,0c0-0.5-0.3-0.8-0.8-0.9c0,0,0,0-0.1,0l0,0l-9.2,1.3
			c-0.6,0-1,0.4-1,1L184,63.2c0,0.5,0.4,1,0.9,1l8.1,0.2c0.5,0,1-0.3,1-0.8c0,0,0,0,0-0.1v-5.6c0-0.3,0.1-0.5,0.3-0.5
			c0.1,0,0.3,0.1,0.4,0.2l9.8,9c0.2,0.2,0.5,0.3,0.7,0.3c0.2,0,0.5-0.1,0.7-0.2l6.3-5.3C212.4,61.2,212.5,60.9,212.5,60.7
			 M171.3,50.6c0,2.6-1.3,4.4-3.5,4.4c-2.1,0-3.8-1.7-3.8-3.8c0-0.1,0-0.2,0-0.3c0-2.5,1.2-4.5,3.7-4.5
			C169.7,46.4,171.3,48.1,171.3,50.6 M181.1,50.6c0-9.9-5.6-15-13.3-15c-8.3,0-13.5,5.6-13.5,15s7,14.4,14.2,14.4
			S181.1,59.7,181.1,50.6 M142,50.6c0,2.6-1.4,4.4-3.5,4.4c-2.1,0-3.8-1.7-3.8-3.8c0-0.1,0-0.2,0-0.3c0-2.5,1.2-4.5,3.6-4.5
			C140.4,46.4,142,48.1,142,50.6 M151.8,50.6c0-9.9-5.6-15-13.3-15c-8.3,0-13.5,5.6-13.5,15s7,14.4,14.2,14.4S151.8,59.7,151.8,50.6
			 M121.7,53.9c0-0.2-0.2-0.4-0.4-0.4c0,0,0,0,0,0h-0.1c-3.6,0.4-7.2,0.6-10.8,0.6c-2.6,0-4.6-0.1-5-0.5c-0.1-0.7-0.2-1.5-0.1-2.2
			c0-5.3,1.1-18.9,1.9-25.3c0,0,0,0,0-0.1c0-0.3-0.2-0.4-0.5-0.4h-0.1L95,25.8c-0.4,0-0.6,0.1-0.6,0.4v4.4c0,10.3-0.2,25.2-1,34.2
			l0,0c0,0.3,0.2,0.5,0.5,0.5c0,0,0,0,0.1,0H94c7.2-0.7,18.8-1,26.9-2c0.3,0,0.4-0.3,0.4-0.7L121.7,53.9L121.7,53.9z"/>
	</g>
</g>
<g id="Untitled_Artwork_23.tiff">
	<path class="st1" d="M24.4,51.1l-0.2-0.8c-0.2-1-0.2-1.9-0.2-2.9c0.1-0.9,0.3-1.7,0.8-2.5c0.5-0.9,0.9-1.7,1.4-2.5
		c0.4-0.6,0.8-1.2,1.2-1.8c0.9-1.2,1.8-2.4,2.7-3.6c0.5-0.8,1-1.7,1.5-2.5c0.5-1,1.1-1.9,1.9-2.8c0.9-1.1,1.8-2.1,2.8-3.2
		c2-2.2,4-4.5,5.9-6.8c1.2-1.4,2.4-2.8,3.6-4.2c0.3-0.4,0.7-0.7,1-1c1.3-1.3,2.7-2.4,4.3-3.4c0.5-0.4,1.1-0.7,1.7-1.1
		c1.4-1,3-1.5,4.6-1.6c0.2,0,0.4-0.1,0.6-0.1c0.3,0,0.7,0,1,0.1c0.1,0,0.2,0.1,0.2,0.1c1.1,0.2,2,1.1,2.4,2.2
		c0.3,0.7,0.4,1.5,0.3,2.3c-0.2,0.9-0.5,1.8-0.8,2.7c-0.5,1.3-1,2.6-1.7,3.9c-0.6,1.3-1,2.6-1.3,4c0,0.1,0,0.3,0,0.4
		c0.3,0.8,1,1.4,1.8,1.6c0.3,0.1,0.6,0.2,0.9,0.3c1,0.3,2,0.7,3,1c0.3,0.1,0.6,0.3,0.9,0.5c0.3,0.1,0.7,0.2,1.1,0.3
		c0.3,0.1,0.6,0,0.8-0.2c0.8-0.5,1.6-1,2.4-1.5c0.9-0.6,1.8-1.2,2.7-1.9l2.8-2.2c0.6-0.4,1.1-0.9,1.7-1.3c0.8-0.6,1.7-1.2,2.6-1.8
		c0.9-0.6,1.9-0.9,3-1c0.7,0,1.4,0.2,2,0.5c0.9,0.4,1.5,1.2,1.8,2.1c0.2,0.5,0.4,1,0.6,1.6c0.3,1,0.4,1.9,0.3,2.9
		c-0.1,1.4-0.5,2.7-1,4c-0.6,1.5-1.2,3.1-1.8,4.7c-0.4,1-0.7,1.9-1,2.9c-0.2,0.4-0.3,0.8-0.5,1.2c-0.4,0.9-0.8,1.7-1.2,2.6
		s-0.6,1.5-0.9,2.3s-0.7,1.8-0.9,2.7s-0.4,1.7-0.6,2.6c-0.5,2.2-0.8,4.4-1.1,6.6c-0.2,1-0.3,2.1-0.5,3.1c-0.1,0.5-0.3,1.1-0.6,1.6
		c-0.3,0.9-0.8,1.8-1.3,2.6c-1,1.3-2.1,2.5-3.3,3.6c-1.8,1.5-3.8,2.8-6,3.6c-0.4,0.1-0.7,0.2-1.1,0.3s-0.7,0.2-1.1,0.3
		c-0.8,0.2-1.6,0.2-2.3,0.1c-1.1-0.2-2.3-0.3-3.4-0.6c-1.5-0.3-2.9-0.9-4.2-1.6c-0.8-0.4-1.7-0.9-2.5-1.4c-0.2-0.1-0.4-0.3-0.6-0.4
		c-0.8-0.5-1.5-1-2.3-1.5s-1.4-0.9-2-1.4c-0.5-0.4-1.1-0.8-1.7-1.2c-1-0.5-2.2-0.8-3.3-0.9c-1,0-2-0.1-3-0.4
		c-0.6-0.2-1.2-0.3-1.8-0.4L36,62.1c-0.7-0.3-1.4-0.5-2.1-0.9c-1.2-0.6-2.3-1.2-3.5-1.8C29.2,58.8,28,57.9,27,57
		c-0.8-0.7-1.4-1.6-1.8-2.6c-0.1-0.4-0.2-0.8-0.4-1.2C24.7,52.5,24.5,51.8,24.4,51.1L24.4,51.1z M66.5,58c0.5-0.1,1-0.2,1.4-0.3
		c1.1-0.4,2-1.1,2.8-2c1.1-1.3,1.8-2.9,2-4.6c0.1-0.8,0.1-1.5-0.1-2.3c-0.1-0.3-0.1-0.5-0.2-0.8c-0.1-0.7-0.3-1.5-0.7-2.1
		c-0.8-1.4-1.9-2.7-3.2-3.8c-0.6-0.5-1.3-0.9-2-1.2c-0.6-0.3-1.3-0.5-2-0.4c-0.7,0-1.5,0.1-2.2,0.1c-0.9,0-1.8,0.2-2.6,0.6
		c-1.4,0.6-2.7,1.5-3.8,2.6c-1,1-1.7,2.3-1.9,3.7C54,48.3,54,49.2,54,50c0,0.1,0,0.2,0,0.4c0.1,0.5,0.2,1,0.3,1.6
		c0.1,1,0.6,2,1.3,2.8c0.7,0.7,1.4,1.3,2.2,1.9c1.4,0.9,3,1.5,4.7,1.7C63.9,58.4,65.2,58.4,66.5,58z M51.2,39.9
		c-0.1-0.4-0.2-0.9-0.4-1.3c-0.4-1-0.9-1.9-1.5-2.8c-0.7-1.2-1.8-2.1-3-2.7c-0.5-0.2-1-0.4-1.5-0.6c-1-0.5-2.2-0.6-3.3-0.4
		c-0.5,0.1-1,0.2-1.5,0.4c-1.1,0.3-2.2,0.8-3.1,1.5c-0.8,0.5-1.4,1.3-1.8,2.1c0,0.1-0.1,0.2-0.2,0.2c-0.8,1-1.2,2.1-1.2,3.4
		c0,0.4,0,0.8,0,1.2c0,0.8,0.1,1.7,0.3,2.5c0.6,1.9,1.7,3.5,3.2,4.7c0.9,0.7,2,1.3,3.1,1.7c1.1,0.4,2.3,0.6,3.5,0.6
		c0.2,0,0.4,0,0.6-0.1c1.2-0.2,2.4-0.7,3.3-1.6c0.5-0.5,1-0.9,1.4-1.3c0.7-0.8,1.3-1.7,1.7-2.7c0.3-0.5,0.4-1.1,0.4-1.7
		C51.4,42.1,51.4,41,51.2,39.9z M50.3,58.2c-0.1-0.4-0.2-0.8-0.5-1.1c-0.7-0.9-1.7-1.5-2.8-1.8c-0.6-0.2-1.3,0-1.7,0.5
		c-0.5,0.5-0.7,1.2-0.4,1.9c0.5,1.1,1.4,2,2.5,2.5c0.6,0.2,1.2,0.2,1.7,0.1c0.4-0.1,0.8-0.3,1-0.7C50.3,59.1,50.4,58.7,50.3,58.2z"
		/>
	<path class="st1" d="M65.5,55.9c-1.2,0.3-2.5,0-3.5-0.8c-0.3-0.3-0.6-0.7-0.8-1.1c-0.4-0.7-0.8-1.5-1-2.3c-0.1-0.2-0.1-0.5-0.1-0.7
		c0.1-1.2,0.6-2.4,1.5-3.3c0.9-1,2.2-1.6,3.6-1.6c0.4,0,0.8,0,1.2,0c0.3,0,0.5,0.1,0.7,0.2c0.4,0.2,0.8,0.4,1.2,0.7
		c0.7,0.4,1.2,1.1,1.4,1.9c0.1,0.5,0.3,1.1,0.4,1.6c0,0.1,0,0.3,0,0.4c-0.2,0.7-0.4,1.4-0.7,2.1c-0.4,0.9-1.1,1.6-1.9,2.1
		C66.9,55.5,66.2,55.8,65.5,55.9z"/>
	<path class="st1" d="M39.4,43.8c0-0.5,0-1,0-1.4c0.2-1.6,1-3,2.4-3.8c0.1-0.1,0.2-0.1,0.3-0.2c0.9-0.8,2.1-1.1,3.3-0.9
		c0.6,0.1,1.2,0.3,1.8,0.7c0.8,0.4,1.4,1.1,1.7,2c0.2,0.3,0.3,0.7,0.5,1c0.2,0.5,0.3,1.1,0.1,1.6c-0.4,1.8-1.5,3.4-3.1,4.3
		c-1.3,0.9-3.1,1-4.5,0.2C40.6,46.5,39.6,45.2,39.4,43.8z"/>
</g>
</svg>
